<svg viewBox="0 0 400 500" xmlns="http://www.w3.org/2000/svg"><path d="M60,500 L100,360 L170,320 L230,320 L300,360 L340,500 Z" fill="#26313b"/><path d="M200,500 L200,320 L230,320 L300,360 L320,500 Z" fill="#141f29"/><path d="M160,330 L200,375 L172,415 L150,340 Z" fill="#d8d5cc"/><path d="M240,330 L200,375 L228,415 L250,340 Z" fill="#e8e4d8"/><rect x="178" y="270" width="44" height="70" fill="#d9a26b"/><path d="M118,222 L108,242 L118,267 L132,257 Z" fill="#d9a26b"/><path d="M282,222 L292,242 L282,267 L268,257 Z" fill="#d9a26b"/><path d="M200,120 L130,150 L120,240 L140,300 L172,335 L200,345 Z" fill="#d9a26b"/><path d="M200,120 L270,150 L280,240 L260,300 L228,335 L200,345 Z" fill="#b98750"/><path d="M148,205 L182,199 L182,208 L150,215 Z" fill="#1a1310"/><path d="M218,199 L252,205 L250,215 L218,208 Z" fill="#1a1310"/><rect x="155" y="222" width="14" height="28" fill="#141010"/><rect x="231" y="222" width="14" height="28" fill="#141010"/><path d="M122,160 Q140,95 200,92 Q260,95 278,160 Q262,120 233,113 Q214,104 200,118 Q186,104 167,113 Q138,120 122,160 Z" fill="#cfcfd2"/></svg>
